HIERARCHY
ROOT Hips
{
  OFFSET 0 0 0
  CHANNELS 6 Xposition Yposition Zposition Zrotation Xrotation Yrotation
  JOINT Spine
  {
    OFFSET 0 10 0
    CHANNELS 3 Zrotation Xrotation Yrotation
    JOINT Neck
    {
      OFFSET 0 30 0
      CHANNELS 3 Zrotation Xrotation Yrotation
      JOINT Head
      {
        OFFSET 0 7.99999 0
        CHANNELS 3 Zrotation Xrotation Yrotation
        End Site
        {
          OFFSET 0 10 0
        }
      }
    }
    JOINT LeftArm
    {
      OFFSET 15 30 0
      CHANNELS 3 Zrotation Xrotation Yrotation
      JOINT LeftForeArm
      {
        OFFSET 25 0 0
        CHANNELS 3 Zrotation Xrotation Yrotation
        JOINT LeftHand
        {
          OFFSET 25 -1.6283e-005 0
          CHANNELS 3 Zrotation Xrotation Yrotation
          End Site
          {
            OFFSET 10 0 0
          }
        }
      }
    }
    JOINT RightArm
    {
      OFFSET -15 30 0
      CHANNELS 3 Zrotation Xrotation Yrotation
      JOINT RightForeArm
      {
        OFFSET -25 0 0
        CHANNELS 3 Zrotation Xrotation Yrotation
        JOINT RightHand
        {
          OFFSET -25 0 0
          CHANNELS 3 Zrotation Xrotation Yrotation
          End Site
          {
            OFFSET -10 0 0
          }
        }
      }
    }
  }
  JOINT LeftUpLeg
  {
    OFFSET 10 -10 0
    CHANNELS 3 Zrotation Xrotation Yrotation
    JOINT LeftLeg
    {
      OFFSET 0 -35 0
      CHANNELS 3 Zrotation Xrotation Yrotation
      JOINT LeftToe
      {
        OFFSET 0 -40 0
        CHANNELS 3 Zrotation Xrotation Yrotation
        JOINT LeftToeEnd
        {
          OFFSET 0 0 0
          CHANNELS 3 Zrotation Xrotation Yrotation
          End Site
          {
            OFFSET 0 0 15
          }
        }
      }
    }
  }
  JOINT RightUpLeg
  {
    OFFSET -10 -10 0
    CHANNELS 3 Zrotation Xrotation Yrotation
    JOINT RightLeg
    {
      OFFSET 0 -35 0
      CHANNELS 3 Zrotation Xrotation Yrotation
      JOINT RightToe
      {
        OFFSET 0 -40 0
        CHANNELS 3 Zrotation Xrotation Yrotation
        JOINT RightToeEnd
        {
          OFFSET 0 0 0
          CHANNELS 3 Zrotation Xrotation Yrotation
          End Site
          {
            OFFSET 0 0 15
          }
        }
      }
    }
  }
}
MOTION
Frames:	13
Frame Time:	0.0333333
2.04271 90.5776 -11.6836 0.726803 -1.57338 -3.15857 -8.09325 8.39875 2.41237 -5.13832 -24.2554 -2.72425 17.4108 17.7055 -6.24948 -78.0367 2.53498 -6.82687 7.26225e-016 7.95139e-016 -20.7408 12.551 5.6838 -1.60329 92.306 -12.0693 5.5121 1.1407e-015 1.59028e-015 18.6963 -13.6518 20.4575 1.03918 1.01606 1.99979 -3.34855 -5.3859e-016 12.0392 -8.13021e-016 -1.80221 -7.51831 13.9812 3.9757e-016 -1.34e-005 1.59028e-015 -2.62216 1.47379 16.4365 -6.52262e-017 13.3323 -0 0.671894 -9.05077 -15.8022 8.69683e-016 7.95139e-016 3.97569e-016 
2.06576 90.5772 -11.7726 0.647092 -1.48594 -3.32631 -7.96066 8.93113 2.58652 -5.1382 -24.3243 -2.69 17.2828 17.2285 -6.16066 -77.8062 3.11363 -7.25774 -4.24692e-016 0 -20.5876 12.4313 4.78745 -1.56709 92.2605 -11.8536 5.80339 1.92886e-015 -3.18055e-015 18.892 -13.7503 20.2663 1.06557 1.06701 1.60881 -3.26293 4.7532e-017 12.5105 -8.14477e-016 -1.75444 -7.70186 13.8824 -9.9392e-017 -1.34e-005 1.59028e-015 -2.55894 1.23168 16.4754 -2.48481e-016 13.3932 -0 0.705615 -9.04184 -15.6443 -3.23025e-016 0 3.97569e-016 
2.1024 90.542 -11.8421 0.922455 -1.51704 -3.40491 -8.27926 9.5618 2.56744 -5.08482 -24.612 -2.62951 17.367 17.1484 -5.94472 -77.6923 3.01772 -7.50787 4.25508e-016 0 -20.878 12.6065 4.98894 -1.61672 92.2757 -11.5853 5.99479 1.97419e-015 1.59028e-015 19.069 -13.8164 19.9561 1.06154 0.737613 1.56383 -3.08738 -2.87939e-016 12.5072 1.62893e-015 -1.75892 -7.63253 13.6529 9.93908e-017 -1.34e-005 -6.36111e-015 -2.76884 0.664302 16.3816 3.72721e-016 14.4235 -0 0.626597 -9.43849 -15.4769 -1.98785e-016 0 3.97569e-016 
2.10699 90.5066 -11.9461 0.878836 -1.49987 -3.63136 -8.20397 10.361 2.7726 -5.14476 -25.1352 -2.60336 17.272 17.2588 -5.87124 -77.5372 3.23439 -7.94006 -1.03507e-015 -1.59028e-015 -20.9643 12.6349 4.72928 -1.62158 92.1853 -11.3654 6.54415 -0 0 19.0198 -13.7793 19.748 1.05337 0.775534 1.11225 -2.82724 -5.56466e-017 13.2085 -8.16746e-016 -1.65754 -7.95191 13.4116 -9.93927e-017 -1.34e-005 -1.59028e-015 -2.6035 0.0128127 16.317 7.34594e-016 15.3458 -1.64907e-015 0.557467 -9.6503 -15.2612 4.22417e-016 3.18055e-015 -7.95139e-016 
2.09468 90.4468 -12.1231 0.94796 -1.25686 -3.96385 -8.60083 10.8341 3.18176 -4.52466 -25.1824 -2.5099 16.6501 16.8491 -5.94075 -77.1593 3.33937 -8.23045 1.1954e-016 -7.95139e-016 -21.0833 12.7014 4.43115 -1.61884 92.4865 -11.618 6.94742 -5.47149e-016 1.59028e-015 18.9862 -13.7683 20.2607 1.05267 0.694274 0.0432281 -2.52345 -7.8129e-016 14.4086 1.64192e-015 -1.53004 -8.25218 13.2657 -9.93925e-017 -1.34e-005 -7.95139e-016 -2.4828 -1.29001 16.2223 1.98785e-016 16.8032 -0 0.429932 -10.0123 -14.674 -4.96962e-017 0 -0 
2.09031 90.3123 -12.2866 1.10464 -0.891318 -4.40159 -8.91997 11.3127 3.40751 -4.67518 -25.7055 -2.42703 17.0651 16.8871 -5.79496 -77.0286 3.4952 -8.40666 1.14057e-016 -7.95139e-016 -21.5024 12.8977 4.10621 -1.64823 92.5242 -11.4062 7.47916 2.52353e-015 0 19.044 -13.8327 19.9603 1.09818 0.531849 -1.28517 -2.01451 -4.53096e-016 15.9031 1.65357e-015 -1.31782 -8.79234 13.0256 -1.85962e-022 -1.34e-005 -7.95139e-016 -2.31215 -3.16632 16.1645 3.97569e-016 19.096 -0 0.176093 -10.7231 -14.2571 2.98177e-016 -7.95139e-016 -0 
2.01171 90.1411 -12.5304 1.25958 -0.815604 -4.95528 -9.58875 12.5025 3.90457 -4.25706 -26.2065 -2.28565 16.9017 15.8901 -5.62337 -76.4089 3.86378 -9.06145 1.4859e-015 1.59028e-015 -21.6283 12.8925 2.94445 -1.63819 92.7445 -10.9581 8.2548 1.95354e-015 -3.18055e-015 19.259 -13.9322 19.8223 1.125 0.478325 -2.45245 -1.13996 -1.05562e-015 17.6163 2.50278e-015 -1.07539 -9.43385 12.431 -5.96354e-016 -1.34e-005 -7.95139e-016 -1.88863 -5.05977 16.7575 1.98785e-016 21.9237 -0 -0.18515 -11.4838 -14.3158 1.73937e-016 1.59028e-015 -0 
1.92439 89.8819 -12.819 1.9729 -0.80705 -5.01791 -11.0898 13.7039 4.04696 -3.75095 -26.375 -2.29645 17.0685 14.7958 -5.5096 -75.4522 3.76445 -9.48843 -8.5827e-016 0 -22.113 13.2232 3.99169 -1.69109 93.0891 -10.098 8.74399 1.41503e-015 -1.59028e-015 19.7288 -14.1809 19.1049 1.20228 -0.0582945 -3.74638 -0.141478 -1.92224e-017 19.3322 -8.42651e-016 -0.875442 -9.92463 11.2605 1.85962e-022 -1.34e-005 7.95139e-016 -2.05694 -7.09487 16.9134 -3.51718e-016 25.2283 1.75796e-015 -0.700222 -12.7307 -14.2133 -1.2921e-015 0 3.97569e-016 
1.77253 89.5457 -13.2384 2.70747 -0.883856 -4.27903 -12.4003 15.5343 3.56906 -3.13278 -26.9923 -2.54042 16.8758 13.6335 -5.34521 -74.3516 4.31534 -10.2772 8.97935e-016 3.18055e-015 -22.6747 13.5045 3.51961 -1.74811 93.6504 -9.60651 9.78231 1.99961e-015 -3.18055e-015 19.9386 -14.1964 19.3411 1.17507 -0.379978 -5.6767 1.03665 4.96962e-017 21.9967 -0 -0.729012 -10.5155 9.1924 1.85962e-022 -1.34e-005 7.95139e-016 -2.31583 -8.76215 16.725 8.50489e-016 28.1381 -1.80342e-015 -1.24773 -14.0499 -14.2621 -9.19379e-016 -7.95139e-016 -7.95139e-016 
1.71904 89.1409 -13.5046 2.91763 -0.972705 -3.3974 -12.565 17.0576 3.20524 -3.29239 -26.831 -2.83241 16.8933 12.1495 -5.23381 -73.662 4.63867 -11.2103 0 0 -22.4741 13.3783 3.81668 -1.71131 93.6588 -9.59756 10.3002 2.80345e-015 1.59028e-015 20.2455 -14.3241 19.2834 1.16188 -0.336381 -7.7858 1.40088 -6.95746e-016 25.3147 -0 -0.440559 -11.6008 7.71329 -2.98177e-016 -1.34e-005 7.95139e-016 -2.24703 -9.87 16.2825 -1.08181e-015 30.5462 3.69308e-015 -1.75988 -15.3453 -14.2669 9.06955e-016 7.95139e-016 3.97569e-016 
1.67901 88.6623 -13.7401 2.13539 -1.05832 -2.67986 -11.135 18.7054 3.03735 -4.09706 -27.2711 -3.21444 16.8324 11.3416 -5.35949 -73.5903 4.99462 -12.6506 -2.08973e-016 1.59028e-015 -22.2323 13.2187 3.88953 -1.6676 92.8701 -9.63264 10.9137 2.12445e-015 0 20.6586 -14.5808 19.2996 1.20244 0.898615 -10.3438 1.96758 1.14301e-015 29.6613 -0 -0.123576 -13.2899 5.96509 9.93923e-017 -1.34e-005 -0 -1.23165 -10.6601 15.7209 -6.05648e-016 32.2455 1.88027e-015 -2.11641 -16.2751 -14.0293 -1.36664e-015 3.97569e-016 -0 
1.7466 88.0422 -13.9845 0.800132 -1.15499 -2.73419 -8.83519 20.1437 3.17633 -5.08047 -27.7475 -3.39285 16.294 10.8612 -5.31186 -74.4512 4.65512 -13.8699 2.08638e-016 -1.59028e-015 -22.2451 13.2075 4.34761 -1.69027 91.358 -9.31282 11.4048 -3.22153e-015 -1.59028e-015 21.1157 -14.7955 19.0039 1.24718 2.6878 -13.0431 2.74036 1.15665e-016 34.4026 -1.0164e-016 0.205148 -15.3602 5.02645 -4.96962e-016 -1.34e-005 -7.95139e-016 0.20512 -11.7725 15.1773 0 34.1799 -0 -2.30955 -17.2162 -12.9149 2.3198e-016 -7.95139e-016 -5.28022e-017 
1.7692 87.423 -14.1467 0.265819 -1.46209 -3.14444 -8.1906 21.5272 3.84404 -5.54517 -28.2351 -3.29626 16.4783 10.4868 -5.15854 -74.6089 5.12545 -14.5146 4.31869e-016 0 -22.9891 13.5664 3.25409 -1.75735 90.4333 -9.09313 11.9602 -8.53114e-016 0 21.2444 -14.8315 18.8474 1.29316 3.62874 -14.5787 3.45914 -1.38951e-016 37.704 1.25625e-016 0.431281 -17.0054 4.23404 -2.98177e-016 -1.34e-005 -0 0.951197 -13.2149 14.6791 -8.01492e-016 37.0161 1.99166e-015 -2.50525 -18.3363 -12.0622 -6.64686e-016 -3.97569e-016 -8.69683e-017 
